<svg xmlns="http://www.w3.org/2000/svg" xml:space="preserve" width="2000" height="1500" data-id="lg_Ayc7xmMEqxSUFdXRwf" data-version="1" viewBox="0 0 2000 1500"><path fill="#fff" stroke="transparent" d="M0 0h2000v1500H0z"/><g data-padding="20"><g transform="translate(-1605.263 -1210.48)scale(2.53924)"><rect width="560" height="164.98" x="340.75" y="289.776" fill="none" rx="0" ry="0" transform="translate(400.5 460.24)"/><path fill="#152232" d="M774.91 879.826q-8.03 0-14.53-4.02-6.49-4.01-10.29-10.73-3.79-6.72-3.79-15.04l.14-45.55q0-8.03 3.72-14.67 3.73-6.65 10.22-10.66 6.5-4.02 14.53-4.02t14.46 3.95q6.42 3.94 10.22 10.58 3.79 6.64 3.79 14.82v6.72q0 .58-.58.58h-16.35q-.59 0-.59-.58v-6.72q0-4.82-3.14-8.32-3.14-3.51-7.81-3.51-5.25 0-8.03 3.58-2.77 3.58-2.77 8.25v45.55q0 5.4 3.14 8.76t7.66 3.36q4.67 0 7.81-3.72 3.14-3.73 3.14-8.4v-6.71q0-.59.59-.59h16.49q.59 0 .59.59v6.71q0 8.32-3.87 15.04t-10.29 10.73q-6.43 4.02-14.46 4.02m66.29 0q-7.89 0-14.39-4.02-6.49-4.01-10.43-10.66-3.95-6.64-3.95-14.67l.15-46.28q0-8.03 3.87-14.6t10.44-10.51q6.57-3.95 14.31-3.95 7.88 0 14.3 3.95 6.43 3.94 10.3 10.51t3.87 14.6l.14 46.28q0 8.03-3.87 14.67-3.87 6.65-10.36 10.66-6.5 4.02-14.38 4.02m0-17.67q4.38 0 7.66-3.58 3.29-3.57 3.29-8.1l-.15-46.28q0-4.82-3.07-8.18-3.06-3.36-7.73-3.36-4.53 0-7.74 3.29-3.21 3.28-3.21 8.25v46.28q0 4.82 3.21 8.25t7.74 3.43m55.62 16.22h-14.6q-1.17 0-1.17-1.03l-.14-99.42q0-1.17 1.17-1.17h13.14l24.67 57.52-.73-56.35q0-1.17 1.31-1.17h14.46q.87 0 .87 1.17l.15 99.57q0 .88-.73.88h-12.85l-25.26-53.73 1.03 52.56q0 1.17-1.32 1.17m67.75 0h-14.6q-1.17 0-1.17-1.03l-.15-99.42q0-1.17 1.17-1.17h13.14l24.67 57.52-.73-56.35q0-1.17 1.32-1.17h14.45q.88 0 .88 1.17l.14 99.57q0 .88-.73.88h-12.84l-25.26-53.73 1.02 52.56q0 1.17-1.31 1.17m99.57 0h-47.16q-.58 0-.58-.73l.14-100.31q0-.58.59-.58h46.86q.59 0 .59.73v16.35q0 .59-.59.59h-29.93v22.77h29.93q.59 0 .59.59l.14 16.49q0 .59-.58.59h-30.08v25.55h30.08q.58 0 .58.73v16.64q0 .59-.58.59m40.44 1.45q-8.03 0-14.53-4.02-6.49-4.01-10.29-10.73t-3.8-15.04l.15-45.55q0-8.03 3.72-14.67 3.73-6.65 10.22-10.66 6.5-4.02 14.53-4.02t14.45 3.95q6.43 3.94 10.22 10.58 3.8 6.64 3.8 14.82v6.72q0 .58-.58.58h-16.36q-.58 0-.58-.58v-6.72q0-4.82-3.14-8.32-3.14-3.51-7.81-3.51-5.26 0-8.03 3.58t-2.77 8.25v45.55q0 5.4 3.13 8.76 3.14 3.36 7.67 3.36 4.67 0 7.81-3.72 3.14-3.73 3.14-8.4v-6.71q0-.59.58-.59h16.5q.59 0 .59.59v6.71q0 8.32-3.87 15.04t-10.3 10.73q-6.42 4.02-14.45 4.02m70.37-1.45h-16.5q-.58 0-.58-.73v-83.22h-18.98q-.73 0-.73-.73l.15-16.36q0-.58.58-.58h55.48q.73 0 .73.58v16.36q0 .73-.58.73h-19.13l.15 83.22q0 .73-.59.73m75.05 0h-47.16q-.59 0-.59-.73l.15-100.16q0-.73.73-.73h16.21q.73 0 .73.73l-.15 82.93H1250q.73 0 .73.73v16.5q0 .73-.73.73m40.57 0h-16.79q-.43 0-.43-.59l.14-41.46-19.56-58.99q-.15-.58.44-.58h16.2q.73 0 .88.58l10.8 39.28 10.95-39.28q.15-.58.73-.58h16.35q.59 0 .44.58l-19.71 58.4.15 42.05q0 .59-.59.59m-247.972-132.822h-43.71c-7.285 0-13.95-3.875-17.515-10.075l-22.01-38.13c-3.565-6.2-3.565-14.105 0-20.305l21.855-37.82c3.565-6.2 10.385-10.075 17.515-10.075h43.865c7.285 0 13.95 3.875 17.515 10.075l21.855 37.975c3.565 6.2 3.565 14.105 0 20.305l-21.7 37.82c-3.72 6.2-10.385 10.23-17.67 10.23m-82.15-67.735 1.085.62c-3.1 5.425-3.1 12.245 0 17.67l22.01 37.975c3.1 5.425 8.99 8.835 15.345 8.835h43.865c6.355 0 12.245-3.41 15.345-8.835l21.855-37.975c3.1-5.425 3.1-12.245 0-17.67l-22.01-37.975c-3.1-5.425-8.99-8.835-15.345-8.835h-43.71c-6.355 0-12.245 3.41-15.345 8.835l-22.01 37.975Z"/><path fill="#152232" d="M1005.397 697.348c-5.58 0-10.075-4.495-10.075-10.075s4.495-10.075 10.075-10.075 10.075 4.495 10.075 10.075-4.495 10.075-10.075 10.075m0-17.825c-4.185 0-7.75 3.41-7.75 7.75s3.41 7.75 7.75 7.75c4.185 0 7.75-3.41 7.75-7.75s-3.41-7.75-7.75-7.75m30.69-.62c-5.58 0-10.075-4.495-10.075-10.075s4.495-10.075 10.075-10.075 10.075 4.495 10.075 10.075-4.495 10.075-10.075 10.075m0-17.825c-4.185 0-7.75 3.41-7.75 7.75 0 4.185 3.41 7.75 7.75 7.75 4.185 0 7.75-3.41 7.75-7.75s-3.565-7.75-7.75-7.75m0 54.715c-5.58 0-10.075-4.495-10.075-10.075s4.495-10.075 10.075-10.075 10.075 4.495 10.075 10.075-4.495 10.075-10.075 10.075m0-17.825c-4.185 0-7.75 3.41-7.75 7.75 0 4.185 3.41 7.75 7.75 7.75s7.75-3.41 7.75-7.75c0-4.185-3.565-7.75-7.75-7.75"/><path fill="#152232" d="M1013.303 683.71c-.465 0-.775-.156-.93-.62-.31-.62-.155-1.24.465-1.55l15.19-9.146c.62-.31 1.24-.155 1.55.465s.155 1.24-.465 1.55l-15.19 9.145c-.155 0-.465.155-.62.155m15.19 18.6c-.155 0-.465 0-.62-.156l-15.5-9.3c-.62-.31-.775-1.085-.465-1.55.31-.62 1.085-.775 1.55-.465l15.5 9.3c.62.31.775 1.085.465 1.55-.155.31-.465.62-.93.62"/></g><path fill="transparent" stroke="transparent" stroke-width="2.632" d="M250 373.684h1500v752.632H250z"/></g></svg>